# xmcd CD database file
#
# Track frame offsets:
#	150
#	22777
#	47512
#	74097
#	100357
#
# Disc length: 1638 seconds
#
# Revision: 6
# Processed by: cddbd v1.5PL3 Copyright (c) Steve Scherf et al.
# Submitted via: CDex 1.50Beta7
#
DISCID=3b066405
DTITLE=平井堅 - LOVE OR LUST
DYEAR=2000
DGENRE=JPop
TTITLE0=LOVE OR LUST
TTITLE1=TABOO
TTITLE2=LOVE OR LUST [V.I.P remix]
TTITLE3=TABOO [a tip of M-FLO remix]
TTITLE4=LOVE OR LUST [less vocal]
EXTD=YEAR: 2000
EXTT0=
EXTT1=
EXTT2=
EXTT3=
EXTT4=
PLAYORDER=
